<?xml version="1.0" standalone="no"?>
<!DOCTYPE svg PUBLIC "-//W3C//DTD SVG 1.1//EN" "http://www.w3.org/Graphics/SVG/1.1/DTD/svg11.dtd" >
<svg>
<metadata>
Created by FontForge 20090914 at Fri Feb 24 06:49:00 2012
 By root
Get full version @ http://www.fontmenu.com (310) 388&#226;&#128;&#144;5216 (c) M.Bujardet &#226;&#128;&#144; Match Software, 8205 Santa Monica Blvd #1&#226;&#128;&#144;205, West Hollywood, CA 90046&#226;&#128;&#144;5912
</metadata>
<defs>
<font id="AguizardTryout" horiz-adv-x="271" >
  <font-face 
    font-family="Aguizard Tryout"
    font-weight="400"
    font-stretch="normal"
    units-per-em="1000"
    panose-1="0 0 4 0 0 0 0 0 0 0"
    ascent="768"
    descent="-232"
    x-height="469"
    cap-height="707"
    bbox="-23 -232 2393 768"
    underline-thickness="50"
    underline-position="-75"
    unicode-range="U+0020-U+00D7"
  />
<missing-glyph horiz-adv-x="500" 
d="M63 0v768h375v-768h-375zM125 63h250v643h-250v-643z" />
    <glyph glyph-name=".notdef" horiz-adv-x="500" 
d="M63 0v768h375v-768h-375zM125 63h250v643h-250v-643z" />
    <glyph glyph-name=".null" horiz-adv-x="0" 
 />
    <glyph glyph-name="nonmarkingreturn" 
 />
    <glyph glyph-name="space" unicode=" " 
 />
    <glyph glyph-name="multiply" unicode="&#xd7;" horiz-adv-x="667" 
 />
    <glyph glyph-name="exclam" unicode="!" 
 />
    <glyph glyph-name="quotedbl" unicode="&#x22;" horiz-adv-x="396" 
 />
    <glyph glyph-name="numbersign" unicode="#" horiz-adv-x="667" 
 />
    <glyph glyph-name="dollar" unicode="$" horiz-adv-x="625" 
 />
    <glyph glyph-name="percent" unicode="%" horiz-adv-x="896" 
 />
    <glyph glyph-name="ampersand" unicode="&#x26;" horiz-adv-x="604" 
 />
    <glyph glyph-name="quotesingle" unicode="'" horiz-adv-x="208" 
 />
    <glyph glyph-name="parenleft" unicode="(" horiz-adv-x="313" 
 />
    <glyph glyph-name="parenright" unicode=")" horiz-adv-x="313" 
 />
    <glyph glyph-name="asterisk" unicode="*" horiz-adv-x="2472" 
d="M2381 594q-4 -1 -9 -1q-25 0 -25 20v81q-5 2 -12 2v14h10q2 9 2 28q5 4 16 12v-38q4 -2 16 -2v-14h-16v-77q0 -5 5.5 -6.5t10.5 -2.5q1 -5 2 -16zM2317 595h-16v81q0 7 -6.5 14.5t-13.5 7.5q-23 0 -23 -29v-74h-16v115h14v-6q0 -4 1 -9q10 17 30 17q30 0 30 -33v-84z
M2223 654q0 -24 -10 -41q-12 -20 -33 -20q-23 0 -35 18t-12 41t10 40q12 21 33 21q47 0 47 -59zM2135 754l-3 -15q-4 1 -8 1q-14 0 -14 -21v-7q5 -2 18 -2v-14h-17v-101h-17v99q-6 2 -14 2v14h13q2 16 3 31q5 15 25 15q10 0 14 -2zM2028 594q-5 -1 -10 -1q-25 0 -25 20v81
q-5 2 -12 2v14h11q1 9 1 28q5 4 16 12v-38q4 -2 16 -2v-14h-16v-77q0 -5 5.5 -6.5t10.5 -2.5q1 -5 3 -16zM2338 340h-16v85q0 17 -16 17q-24 0 -24 -25v-77h-16v85q0 17 -19 17q-21 0 -21 -30v-72h-16v116h15v-6q0 -5 1 -9q10 18 27 18t27 -19q9 18 29 18q29 0 29 -29v-89z
M1970 659q0 -6 -1 -11h-70q-1 -3 -1 -5q0 -11 9 -23t20 -12q19 0 26 23q5 -1 16 -2q0 -14 -13.5 -25t-27.5 -11q-46 0 -46 58q0 23 10 41q12 22 33 22q20 0 32.5 -17t12.5 -38zM2191 399q0 -23 -9 -40q-12 -21 -34 -21t-34 18t-12 42q0 23 10.5 41.5t31.5 18.5q47 0 47 -59z
M1868 630q0 -38 -40 -38q-34 0 -39 36q1 0 16 3q3 -22 24 -22q22 0 22 18q0 11 -30 20.5t-30 33.5q0 32 37 32q35 0 37 -32l-15 -3q-2 19 -23 19q-19 0 -19 -18q3 -8 33 -17q27 -7 27 -32zM2393 86h-16v84q0 18 -17 18q-23 0 -23 -26v-76h-16v84q0 18 -20 18t-20 -30v-72
h-16v115h15v-6q-1 -5 1 -9q10 18 27 18t27 -19q9 18 29 18q29 0 29 -29v-88zM2094 380q0 -14 -12 -28.5t-26 -14.5q-21 0 -33 19t-12 41q0 61 43 61q35 0 39 -35q-5 -1 -16 -3q-3 23 -23 23q-11 0 -18.5 -14.5t-7.5 -27.5q0 -47 27 -47q21 0 23 28q5 0 16 -2zM1737 707
q-2 -7 -7 -19q-5 5 -11 5q-17 0 -17 -27v-71h-16v115h13v-5q0 -6 1 -11q6 19 22 19q8 0 15 -6zM2246 145q0 -24 -10 -41q-11 -21 -33 -21t-35 20q-11 17 -11 40t9 40q12 21 33 21q47 0 47 -59zM1989 340h-17v22h17v-22zM1941 340h-14q0 13 -1 17q-12 -19 -30 -19
q-31 0 -31 36v82h17v-80q0 -22 21 -22q9 0 16 9.5t7 19.5v73h15v-116zM1667 659q0 -6 -2 -11h-70v-5q0 -11 8.5 -23t19.5 -12q20 0 26 23q6 -1 16 -2q0 -14 -13.5 -25t-26.5 -11q-47 0 -47 58q0 23 10 41q12 22 33 22t33.5 -17t12.5 -38zM2149 125q0 -14 -12 -28.5
t-26 -14.5q-21 0 -34 21q-11 17 -11 39q0 62 43 62q35 0 39 -36q-6 -1 -16 -3q-3 23 -23 23q-11 0 -18.5 -14.5t-7.5 -27.5q0 -47 27 -47q21 0 23 29q5 -1 16 -3zM1572 594q-5 -1 -10 -1q-25 0 -25 20v81q-4 2 -11 2v14h10q1 9 1 28q6 4 16 12v-38q5 -2 17 -2v-14h-17v-77
q0 -5 6 -6.5t11 -2.5q0 -5 2 -16zM1839 340h-16v81q0 7 -6.5 14.5t-13.5 7.5q-23 0 -23 -28v-75h-16v116h15v-6q-1 -5 0 -9q11 17 30 17q30 0 30 -34v-84zM2044 86h-17v22h17v-22zM1519 634q0 -13 -12 -27.5t-26 -14.5q-21 0 -33 20q-11 17 -11 40q0 61 42 61q35 0 39 -35
q-5 -1 -16 -4q-2 23 -22 23q-12 0 -19.5 -14.5t-7.5 -27.5q0 -46 27 -46q21 0 23 28q6 -1 16 -3zM2002 121q0 -38 -39 -38q-35 0 -39 36l15 3q3 -23 24 -23q23 0 23 19q0 11 -30 20t-30 34q0 32 36 32q35 0 37 -32l-15 -3q-2 19 -22 19t-19 -19q3 -7 33 -16q26 -8 26 -32z
M1745 405q0 -7 -1 -12h-71v-5q0 -11 9 -22.5t19 -11.5q20 0 27 22q5 0 16 -2q-1 -14 -14 -25t-27 -11q-47 0 -47 58q0 23 10 41q12 22 33 22t33.5 -16.5t12.5 -37.5zM1919 85q-5 -2 -10 -2q-25 0 -25 21v81q-4 2 -12 1v15h11q1 8 1 28q5 4 16 12v-39q5 -1 16 -1v-15h-16v-77
q0 -4 5.5 -5.5t11.5 -2.5q0 -6 2 -16zM1425 595h-16l-6 15q-16 -18 -36 -18q-30 0 -30 33q0 27 25 34q40 10 41.5 12.5t1.5 5.5q0 20 -23 20t-27 -22q-5 0 -15 2q6 36 43 36q39 0 39 -57v-16v-16q0 -19 3 -29zM1639 340h-17v85q0 17 -16 17q-23 0 -23 -25v-77h-17v85
q0 17 -19 17q-21 0 -21 -30v-72h-16v116h15v-6q0 -5 1 -9q10 18 28 18q17 0 26 -19q10 18 30 18q29 0 29 -29v-89zM1855 86h-17v81q0 7 -6.5 14.5t-13.5 7.5q-23 0 -23 -29v-74h-16v115h15v-6q0 -5 1 -9q10 17 29 17q31 0 31 -34v-83zM1331 707q-1 -7 -6 -19q-6 5 -11 5
q-18 0 -18 -27v-71h-16v115h14v-5q0 -6 1 -11q5 19 22 19q8 0 14 -6zM1498 339q-4 -1 -9 -1q-25 0 -25 21v81q-5 1 -12 1v15h11q1 8 1 28q5 4 16 12v-39q4 -1 16 -1v-15h-16v-77q0 -5 5.5 -6.5t10.5 -2.5q1 -5 2 -16zM1262 595h-15l-6 15q-16 -18 -36 -18q-30 0 -30 33
q0 27 25 34q39 10 42 12v6q0 20 -23 20t-26 -22q-5 0 -16 2q7 36 44 36q39 0 39 -57q0 -5 -1 -16v-16q0 -19 3 -29zM1760 145q0 -24 -9 -41q-12 -21 -34 -21t-35 20q-11 17 -11 40t10 40q11 21 32 21q47 0 47 -59zM1672 244q0 -5 -2 -15q-5 2 -8 2q-15 0 -14 -21v-8
q5 -1 17 -1v-15h-17v-100h-16v99q-7 2 -14 1v15h13q1 16 4 31t24 15q9 0 13 -3zM1434 340h-16v81q0 7 -6.5 14.5t-13.5 7.5q-23 0 -23 -28v-75h-16v116h14v-6q0 -5 1 -9q10 17 30 17q30 0 30 -34v-84zM1154 595h-16v82q0 20 -20 20q-24 0 -24 -28v-74h-17v159h16v-56
q13 15 30 15q31 0 31 -33v-85zM1602 86h-16v82q0 20 -20 20q-24 0 -24 -28v-74h-16v158h16v-56q13 16 30 16q30 0 30 -33v-85zM1340 399q0 -23 -10 -40q-12 -21 -33 -21q-23 0 -35 18t-12 42q0 23 11 41.5t32 18.5q47 0 47 -59zM1063 634q0 -13 -12.5 -27.5t-25.5 -14.5
q-21 0 -34 20q-11 17 -11 40q0 61 42 61q36 0 40 -35q-6 -1 -16 -4q-3 23 -23 23q-12 0 -19.5 -14.5t-7.5 -27.5q0 -46 28 -46q20 0 23 28q5 -1 16 -3zM1802 -117q0 -55 -42 -55q-43 0 -43 74q0 89 45 89q28 0 38 -38q-8 -3 -16 -3q-8 24 -23 24q-29 0 -29 -50q0 -5 1 -9
q13 19 31 19q17 0 27.5 -16.5t10.5 -34.5zM1252 499l-3 -15q-4 1 -8 1q-14 0 -14 -21v-7q5 -1 18 -1v-15h-17v-101h-17v100q-6 1 -14 1v15h13q2 15 3 31q5 14 25 14q10 0 14 -2zM1511 125q0 -14 -12 -28.5t-26 -14.5q-21 0 -34 21q-11 17 -11 39q0 62 43 62q35 0 39 -36
q-5 -1 -16 -3q-2 23 -22 23q-12 0 -19.5 -14.5t-7.5 -27.5q0 -47 27 -47q21 0 23 29q6 -1 16 -3zM911 595h-16v159h16v-159zM1676 -169h-17v124q-16 -14 -31 -22v18q28 18 38 40h10v-160zM1423 85q-5 -2 -10 -2q-25 0 -25 21v81q-5 2 -12 1v15h11q1 8 1 28q5 4 16 12v-39
q4 -1 16 -1v-15h-16v-77q0 -4 5.5 -5.5t10.5 -2.5q1 -6 3 -16zM870 595h-16v159h16v-159zM1178 340h-17v22h17v-22zM1155 456l-27 -116h-18l-20 89l-19 -89h-17l-28 116h17q7 -40 19 -91l20 91h17l19 -89q11 44 20 89h17zM1600 -54q0 -19 -26 -51l-39 -46q4 -1 64 0v-18h-86
q1 23 36 61t35 55q0 10 -8.5 19.5t-18.5 9.5q-11 0 -19.5 -11.5t-6.5 -23.5q-5 1 -16 2v3q-1 18 12 31.5t31 13.5t30 -13.5t12 -31.5zM1366 86h-16q-1 5 -5 15q-16 -18 -36 -18q-30 0 -30 33q0 27 25 33q39 11 42 12v7q0 20 -23 20t-26 -22q-5 0 -16 2q6 36 44 36
q39 0 39 -57q0 -5 -1 -16v-16q0 -19 3 -29zM828 595h-14q0 12 -1 16q-12 -18 -30 -18q-31 0 -31 35v82h16v-79q0 -7 7 -15t14 -8q10 0 17 9.5t7 20.5v72h15v-115zM747 754q0 -5 -2 -15q-5 1 -9 1q-14 0 -13 -21v-7q5 -2 17 -2v-14h-17v-101h-16v99q-7 2 -14 2v14h13
q1 16 4 31t24 15q9 0 13 -2zM1499 -116q0 -22 -13 -38.5t-34 -16.5q-16 0 -28 13.5t-12 29.5q6 1 16 2q7 -30 27 -30q13 0 21 16q6 13 6 27q0 12 -8 22.5t-20 10.5q-15 0 -24 -16q-7 2 -15 2l12 81h65v-17h-50q-5 -20 -7 -41q11 8 24 8q18 0 29 -17.5t11 -35.5zM1024 456
l-27 -116h-18l-20 89l-19 -89h-17l-28 116h17l19 -91l20 91h17l20 -89q10 44 19 89h17zM1259 86h-16v84q0 18 -17 18q-23 0 -23 -26v-76h-16v84q0 18 -20 18t-20 -30v-72h-16v115h15l-1 -6q0 -5 1 -9q11 18 28 18t27 -19q9 18 29 18q29 0 29 -29v-88zM1398 -121h-49v20h49
v-20zM633 659q0 -6 -1 -11h-70q-1 -3 -1 -5q0 -11 9 -23t20 -12q19 0 26 23q5 -1 16 -2q-1 -14 -14 -25t-27 -11q-47 0 -47 58q0 23 10 41q12 22 34 22q20 0 32.5 -17t12.5 -38zM893 456l-27 -116h-18l-19 89l-20 -89h-17l-28 116h17q8 -40 20 -91l19 91h17l20 -89
q10 44 19 89h17zM1337 -124q0 -19 -12.5 -33.5t-31.5 -14.5t-31.5 14.5t-12.5 33.5q0 36 25 42q-19 12 -19 34q0 16 11.5 27.5t27.5 11.5q15 0 26 -12.5t11 -27.5q0 -20 -19 -33q25 -10 25 -42zM1102 86h-17v22h17v-22zM526 595h-17v82q0 20 -20 20q-24 0 -24 -28v-74h-16
v159h16v-56q10 15 28 15q13 0 23 -10t10 -23v-85zM1079 201l-27 -115h-18l-20 88l-19 -88h-17l-28 115h17q7 -39 19 -91l20 91h17l19 -88q11 43 20 88h17zM763 501l-38 -163h-12l37 163h13zM712 501l-37 -163h-13l38 163h12zM1235 -124q0 -19 -12.5 -33.5t-31.5 -14.5
t-31 14.5t-12 33.5q0 36 25 42q-19 12 -19 34q0 16 11.5 27.5t26.5 11.5t26 -12.5t11 -27.5q0 -20 -19 -33q25 -10 25 -42zM437 594q-5 -1 -10 -1q-25 0 -25 20v81q-5 2 -12 2v14h11q1 9 1 28q5 4 16 12v-38q5 -2 16 -2v-14h-16v-77q0 -5 5.5 -6.5t10.5 -2.5q1 -5 3 -16z
M646 434h-17v22h17v-22zM948 201l-27 -115h-18l-19 88l-20 -88h-17l-28 115h17q8 -39 20 -91l19 91h17l20 -88q10 43 19 88h17zM1132 -122q0 -19 -12.5 -34t-30.5 -15t-30 12.5t-12 31.5q5 0 16 2q7 -30 25 -30q28 0 28 33q0 31 -27 31q-6 0 -11 -2q1 6 3 19l5 -1
q24 0 24 28q0 22 -23 22q-20 0 -22 -27q-5 1 -16 2q0 15 11.5 28t25.5 13q40 0 40 -41q0 -22 -18 -32q24 -12 24 -40zM646 340h-17v22h17v-22zM336 594q-4 -1 -9 -1q-26 0 -26 20v81q-4 2 -11 2v14h10q1 9 2 28l15 12v-38q5 -2 17 -2v-14h-16v-77q0 -5 5.5 -6.5t10.5 -2.5
q0 -5 2 -16zM604 400q0 -62 -41 -62q-14 0 -23 13q-2 -3 -1 -55h-17v160h15v-5q1 -3 1 -10q10 17 27 17q39 0 39 -58zM510 339q-4 -1 -10 -1q-25 0 -25 21v81q-4 1 -11 1v15h10q1 8 2 28q5 4 16 12v-39q4 -1 16 -1v-15h-16v-77q0 -5 5.5 -6.5t10.5 -2.5q0 -5 2 -16zM817 201
l-27 -115h-18l-19 88l-20 -88h-17l-28 115h17q8 -39 20 -91l19 91h17l20 -88q10 43 19 88h17zM1026 -112q0 -52 -31 -103h-11q26 53 26 105t-26 102h11q31 -51 31 -104zM279 659q0 -6 -1 -11h-70q-1 -3 -1 -5q0 -11 9 -23t20 -12q19 0 26 23q5 -1 16 -2q-1 -14 -14 -25
t-27 -11q-47 0 -47 58q0 23 10 41q13 22 34 22q20 0 32.5 -17t12.5 -38zM460 339q-4 -1 -10 -1q-25 0 -25 21v81q-4 1 -11 1v15h10q1 8 2 28l15 12v-39q5 -1 17 -1v-15h-17v-77q0 -5 6 -6.5t11 -2.5q0 -5 2 -16zM970 -92q0 -42 -15 -65q-4 -6 -22 -14h-5q-44 -2 -44 81
q0 81 40 81q46 0 46 -83zM687 247l-38 -163h-12l37 163h13zM173 616q-27 -24 -55 -24q-32 0 -50 26q-15 22 -15 55q0 32 13 55q16 28 46 28q7 0 21 -1q11 -1 24.5 -17t12.5 -28q-5 -2 -16 -5q-1 14 -12.5 24.5t-25.5 10.5q-21 0 -35 -21q-12 -17 -12 -39q0 -70 49 -70
q22 0 37 17v29q-4 1 -38 0v19h56v-59zM397 340h-16v83q0 19 -20 19q-24 0 -24 -27v-75h-17v159h17v-56q12 15 29 15q31 0 31 -33v-85zM636 247l-37 -163h-13l38 163h12zM570 179h-17v22h17v-22zM843 -169h-17v124q-16 -14 -30 -22v18q27 18 37 40h10v-160zM570 86h-17v22h17
v-22zM767 -122q0 -19 -12.5 -34t-31.5 -15q-18 0 -30 12.5t-12 31.5q5 0 16 2q8 -30 25 -30q28 0 28 33q0 31 -27 31q-5 0 -10 -2q0 6 2 19l5 -1q24 0 24 28q0 22 -22 22q-20 0 -23 -27q-5 1 -16 2q1 15 12 28t26 13q39 0 39 -41q0 -22 -17 -32q24 -12 24 -40zM528 146
q0 -63 -41 -63q-14 0 -23 13q-2 -2 -1 -55h-17v160h15v-5q1 -3 1 -9q10 17 27 17q39 0 39 -58zM434 85q-4 -2 -9 -2q-25 0 -25 21v81q-5 2 -12 1v15h10q1 8 2 28q5 4 16 12v-39q4 -1 16 -1v-15h-16v-77q0 -4 5.5 -5.5t10.5 -2.5q1 -6 2 -16zM251 342q-21 -47 -76 -47
q-92 0 -92 97q0 45 23.5 77.5t66.5 32.5q32 0 53 -25t21 -58q0 -25 -14 -50q-16 -29 -40 -29q-14 0 -18 18q-14 -18 -28 -18t-23 18q-7 15 -7 31q0 24 13.5 46.5t35.5 22.5q13 0 23 -19q1 6 3 17h16l-15 -92l4 -5h2q14 0 24 22t10 37q0 30 -18 48.5t-48 18.5q-32 0 -52 -30
q-18 -26 -18 -59q0 -85 76 -85q39 0 62 31h16zM667 -215h-11q-32 51 -32 103t32 104h10q-26 -53 -26 -104q0 -52 27 -103zM384 85q-4 -2 -10 -2q-25 0 -25 21v81q-4 2 -11 1v15h10q1 8 2 28l15 12v-39q5 -1 17 -1v-15h-17v-77q0 -4 6 -5.5t11 -2.5q0 -6 2 -16zM321 86h-16
v82q0 20 -20 20q-24 0 -24 -28v-74h-17v158h17v-56q13 16 29 16q13 0 22 -10t9 -23v-85zM185 197q-2 -6 -7 -18q-6 5 -11 5q-18 0 -18 -27v-71h-16v115h14v-5q0 -6 1 -11q5 19 22 19q8 0 15 -7zM115 145q0 -24 -10 -41q-12 -21 -33 -21q-23 0 -36 20q-11 17 -11 40t10 40
q12 21 33 21q47 0 47 -59zM2206 653q0 44 -28 44t-28 -45q0 -43 34 -43q10 0 17 18q5 14 5 26zM1954 664q0 12 -8 22.5t-19 10.5q-12 0 -20 -11t-8 -23zM2175 398q0 45 -29 45q-28 0 -28 -46q0 -43 34 -43q10 0 17 18q6 14 6 26zM2230 143q0 45 -29 45q-28 0 -28 -45
q0 -43 34 -43q10 0 17 17q6 14 6 26zM1650 664q0 12 -7.5 22.5t-19.5 10.5t-20 -11t-7 -23zM1728 409q0 12 -7.5 22.5t-19.5 10.5q-11 0 -19 -11t-8 -23zM1404 643v10q-2 -1 -30 -9q-20 -5 -20 -16q0 -7 6 -15q6 -4 13 -4q32 0 31 34zM1744 143q0 45 -29 45q-28 0 -28 -45
q0 -43 34 -43q10 0 17 17q6 14 6 26zM1241 643v10q-1 -1 -29 -9q-21 -5 -21 -16q0 -7 6 -15q6 -4 14 -4q31 0 30 34zM1323 398q0 45 -28 45t-28 -46q0 -43 34 -43q10 0 17 18q5 14 5 26zM1786 -117q0 35 -26 35t-26 -34q0 -39 31 -39q9 0 15 16q6 12 6 22zM1345 134v10
q-2 -1 -29 -9q-21 -5 -21 -16q0 -7 6 -16q6 -3 14 -3q31 0 30 34zM617 664q0 12 -8 22.5t-19 10.5q-12 0 -20 -11t-8 -23zM1314 -49q0 24 -21 24t-21 -23q0 -26 21 -26t21 25zM1319 -121q0 31 -25 31q-28 0 -28 -31q0 -34 29 -34q10 0 17 11.5t7 22.5zM1212 -49q0 24 -20 24
q-22 0 -22 -23q0 -26 21 -26t21 25zM1218 -121q0 31 -25 31q-29 0 -29 -31q0 -34 29 -34q11 0 18 11.5t7 22.5zM588 398q0 44 -26 44q-25 0 -25 -43q0 -45 27 -45q11 0 18 18q6 14 6 26zM263 664q0 12 -8 22.5t-19 10.5q-12 0 -20 -11t-8 -23zM953 -106v32q0 49 -25 49
q-27 0 -27 -46v-42q0 -11 8 -27t18 -16q26 0 26 50zM512 144q0 44 -26 44q-25 0 -25 -44t27 -44q11 0 18 17q6 14 6 27zM183 409q0 33 -24 33q-26 -11 -26 -55q0 -30 17 -30q15 0 25 19q8 16 8 33zM98 143q0 45 -28 45q-29 0 -29 -45q0 -43 34 -43q11 0 18 17q5 14 5 26z
" />
    <glyph glyph-name="plus" unicode="+" horiz-adv-x="667" 
 />
    <glyph glyph-name="comma" unicode="," horiz-adv-x="229" 
 />
    <glyph glyph-name="hyphen" unicode="-" horiz-adv-x="292" 
 />
    <glyph glyph-name="hyphen" unicode="&#x2010;" horiz-adv-x="292" 
 />
    <glyph glyph-name="period" unicode="." horiz-adv-x="229" 
 />
    <glyph glyph-name="slash" unicode="/" horiz-adv-x="333" 
 />
    <glyph glyph-name="zero" unicode="0" horiz-adv-x="583" 
d="M532 327q0 -129 -56 -224q-66 -116 -187 -116q-120 0 -187 116q-55 95 -55 224t55 225q67 115 187 115q121 0 187 -115q56 -96 56 -225zM451 327q0 95 -34 169q-44 97 -127 97q-84 0 -128 -97q-34 -74 -34 -169q0 -94 34 -169q44 -97 127 -97q84 0 128 97q34 75 34 169z
" />
    <glyph glyph-name="one" unicode="1" horiz-adv-x="583" 
d="M354 0h-73v499h-164v54q67 1 112 31q52 34 52 93h73v-677z" />
    <glyph glyph-name="two" unicode="2" horiz-adv-x="583" 
d="M520 0h-439v90q116 74 212 162q138 127 138 207q0 55 -39 98.5t-93 43.5t-92.5 -43.5t-38.5 -98.5q0 -27 15 -58h-91q-11 30 -11 58q0 90 64.5 154t153.5 64q90 0 154.5 -64t64.5 -154t-114 -211q-85 -90 -194 -162h310v-86z" />
    <glyph glyph-name="three" unicode="3" horiz-adv-x="583" 
d="M526 197q0 -90 -73 -150q-68 -57 -160 -57q-91 0 -160 57q-72 60 -72 150h86q0 -55 47 -97t99 -42q53 0 100 42t47 97q0 54 -46.5 93t-100.5 39h-35v62h33q44 0 85.5 31t41.5 75t-41.5 77t-85.5 33q-43 0 -83 -32q-43 -33 -44 -78h-86q0 80 68 132q63 48 145 48
q83 0 145 -48q69 -52 69 -132q0 -82 -72 -135q93 -61 93 -165z" />
    <glyph glyph-name="four" unicode="4" horiz-adv-x="583" 
d="M535 199h-88v-199h-73v199h-329v74l329 404h73v-404h88v-74zM374 273v273l-240 -273h240z" />
    <glyph glyph-name="five" unicode="5" horiz-adv-x="583" 
d="M526 233q0 -95 -67 -164t-162 -69q-84 0 -148 55.5t-78 139.5l74 -1q12 -52 55.5 -86.5t96.5 -34.5q65 0 110 47.5t45 112.5t-45 112t-110 47q-82 0 -139 -87h-88l38 369h359v-73h-300l-16 -192q50 57 146 57q95 0 162 -69t67 -164z" />
    <glyph glyph-name="six" unicode="6" horiz-adv-x="583" 
d="M527 208q0 -93 -62.5 -157.5t-154.5 -64.5q-121 0 -185 111q-52 90 -52 221q0 141 42 234q57 127 181 127q85 0 127 -35q39 -31 67 -115l-76 -8q-18 52 -41 68.5t-77 16.5q-77 0 -123 -105q-37 -83 -37 -171q0 -13 1 -25q21 62 66.5 100t108.5 38q92 0 155 -72
q60 -70 60 -163zM455 208q0 68 -39 113.5t-106 45.5q-68 0 -111 -46t-43 -114q0 -64 45 -104t109 -40q65 0 105 40t40 105z" />
    <glyph glyph-name="seven" unicode="7" horiz-adv-x="583" 
d="M509 550q-57 -62 -151 -267q-97 -211 -97 -283h-91q0 73 84.5 248t183.5 302v55h-279v-117h-62v191h412v-129z" />
    <glyph glyph-name="eight" unicode="8" horiz-adv-x="583" 
d="M532 195q0 -93 -75 -149q-67 -50 -164 -50t-164 50q-75 56 -75 149q0 107 96 167q-81 53 -81 143q0 86 72 135q63 44 152 44t152 -44q72 -49 72 -135q0 -90 -81 -143q96 -60 96 -167zM431 505q0 52 -45 81q-39 26 -94 26q-54 0 -93 -26q-45 -29 -45 -81q0 -51 45 -81
q39 -25 93 -25q55 0 94 25q45 30 45 81zM445 195q0 60 -48 96q-43 32 -105 32q-61 0 -104 -32q-48 -36 -48 -96q0 -59 48 -95q43 -32 105 -32q61 0 104 32q48 36 48 95z" />
    <glyph glyph-name="nine" unicode="9" horiz-adv-x="583" 
d="M521 352q0 -142 -42 -235q-57 -127 -181 -127q-85 0 -127 35q-39 32 -67 115l76 8q18 -52 41 -68t77 -16q77 0 123 104q37 83 37 171q0 13 -1 25q-21 -62 -65 -98q-47 -40 -109 -40q-93 0 -156 73q-60 69 -60 163q0 92 62.5 156.5t154.5 64.5q121 0 185 -110
q52 -91 52 -221zM438 463q0 63 -45 103t-109 40q-65 0 -104.5 -40t-39.5 -104q0 -69 37 -113q40 -47 107 -47q68 0 111 46t43 115z" />
    <glyph glyph-name="colon" unicode=":" 
d="M204 387h-99v99h99v-99zM204 0h-99v99h99v-99z" />
    <glyph glyph-name="semicolon" unicode=";" 
d="M204 387h-99v99h99v-99zM204 0q0 -65 -54 -158h-39q44 118 45 158h-51v99h99v-99z" />
    <glyph glyph-name="less" unicode="&#x3c;" horiz-adv-x="667" 
d="M667 706v-83l-583 -270l583 -270v-83l-667 312v83z" />
    <glyph glyph-name="equal" unicode="=" horiz-adv-x="667" 
d="M667 342h-663v76h663v-76zM667 162h-663v76h663v-76z" />
    <glyph glyph-name="greater" unicode="&#x3e;" horiz-adv-x="667" 
d="M667 312l-667 -312v83l583 270l-583 270v83l667 -311v-83z" />
    <glyph glyph-name="question" unicode="?" horiz-adv-x="562" 
d="M535 508q0 -79 -54 -137t-133 -73v-150h-93v239h46q55 0 96 32q45 36 45 89q0 54 -44 94t-97 40t-95.5 -39.5t-44.5 -94.5q0 -14 -1 -42l-92 2v41q2 91 72 150q67 56 161 56q95 0 162 -56q72 -60 72 -151zM347 0h-99v99h99v-99z" />
    <glyph glyph-name="at" unicode="@" horiz-adv-x="896" 
d="M812 31q-53 -80 -161 -135q-103 -53 -194 -53q-156 0 -273 114q-124 120 -124 299q0 192 115.5 324.5t279.5 132.5q139 0 240 -101q106 -106 106 -267q0 -113 -52 -203q-59 -101 -151 -101q-34 0 -60 21q-30 23 -34 60q-43 -80 -120 -80q-56 0 -87 69q-25 56 -25 128
q0 102 62 180.5t148 78.5q47 0 75 -93l25 76l64 2q-68 -268 -68 -357q0 -15 11 -28t24 -13q75 0 117 90q33 74 33 170q0 139 -94 233q-90 89 -211 89q-147 0 -234 -127q-80 -117 -80 -293q0 -151 92 -256t222 -105q93 0 187 46q90 44 163 120zM540 333q0 108 -43 108
q-61 0 -103 -74q-38 -67 -38 -142q0 -135 62 -135q58 0 93 91q29 74 29 152z" />
    <glyph glyph-name="A" unicode="A" horiz-adv-x="646" 
d="M644 0h-92l-79 201h-294l-79 -201h-92l274 706h87zM438 291l-112 289l-113 -289h225z" />
    <glyph glyph-name="B" unicode="B" horiz-adv-x="688" 
d="M638 197q0 -87 -55 -141.5t-143 -54.5h-361v704h341q80 0 137 -55.5t57 -134.5q0 -42 -24 -81q-26 -42 -69 -59q117 -58 117 -178zM522 515q0 41 -30 70.5t-72 29.5h-250v-200h250q42 0 72 29.5t30 70.5zM548 197q0 54 -36.5 91.5t-91.5 37.5h-250v-236h270
q49 0 78.5 29.5t29.5 77.5z" />
    <glyph glyph-name="C" unicode="C" horiz-adv-x="750" 
d="M738 263q-31 -124 -118 -198q-91 -77 -216 -77q-154 0 -253.5 105t-99.5 260q0 153 101 259t253 106q106 0 189 -60q80 -56 122 -156l-89 -21q-32 68 -87 107q-59 41 -132 41q-111 0 -186 -83q-71 -80 -71 -193q0 -115 69 -194q73 -83 186 -83q85 0 148 53q61 50 87 134
h97z" />
    <glyph glyph-name="D" unicode="D" horiz-adv-x="708" 
d="M664 353q0 -131 -72 -235q-82 -117 -212 -117h-302v704h302q130 0 212 -117q72 -104 72 -235zM564 353q0 97 -44 173q-53 90 -140 90h-211v-526h211q87 0 140 90q44 76 44 173z" />
    <glyph glyph-name="E" unicode="E" horiz-adv-x="604" 
d="M580 0h-502v707h502v-90h-411v-229h341v-89h-341v-209h411v-90z" />
    <glyph glyph-name="F" unicode="F" horiz-adv-x="542" 
d="M532 615h-363v-227h315v-89h-315v-299h-91v705h454v-90z" />
    <glyph glyph-name="G" unicode="G" horiz-adv-x="812" 
d="M742 388v-388h-73l-1 102q-45 -60 -114 -92.5t-146 -32.5q-158 0 -259.5 108t-101.5 267q0 163 102 269.5t264 106.5q108 0 194 -54q90 -55 130 -153l-87 -23q-30 66 -95.5 103t-141.5 37q-123 0 -199 -80.5t-76 -205.5q0 -121 73 -203t193 -82q110 0 181 60
q76 63 76 172h-253v89h334z" />
    <glyph glyph-name="H" unicode="H" horiz-adv-x="729" 
d="M651 0h-92v299h-387v-299h-91v707h91v-319h387v319h92v-707z" />
    <glyph glyph-name="I" unicode="I" horiz-adv-x="229" 
d="M161 0h-91v707h91v-707z" />
    <glyph glyph-name="J" unicode="J" horiz-adv-x="375" 
d="M295 182q0 -203 -196 -203q-51 0 -91 12v102q46 -19 94 -19q102 0 102 108v525h91v-525z" />
    <glyph glyph-name="K" unicode="K" horiz-adv-x="625" 
d="M628 707l-319 -312l316 -395h-117l-264 331l-85 -83v-248h-91v707h91v-333l341 333h128z" />
    <glyph glyph-name="L" unicode="L" horiz-adv-x="521" 
d="M502 0h-431v706h92v-616h339v-90z" />
    <glyph glyph-name="M" unicode="M" horiz-adv-x="812" 
d="M745 0h-92v558l-205 -557h-79l-206 557v-558h-92v706h121l216 -572l216 572h121v-706z" />
    <glyph glyph-name="N" unicode="N" horiz-adv-x="708" 
d="M639 0h-97l-379 569v-569h-92v706h100l377 -575v575h91v-706z" />
    <glyph glyph-name="O" unicode="O" horiz-adv-x="812" 
d="M765 352q0 -159 -98 -263q-101 -106 -259 -106q-159 0 -258.5 105t-99.5 264q0 160 99 265t259 105q158 0 259 -106q98 -104 98 -264zM663 352q0 120 -67 205q-73 92 -189 92t-188 -92q-67 -85 -67 -205q0 -119 67 -204q72 -91 188 -91t189 91q67 85 67 204z" />
    <glyph glyph-name="P" unicode="P" horiz-adv-x="625" 
d="M612 501q0 -84 -61 -144t-147 -60h-235v-297h-92v705h327q86 0 147 -60t61 -144zM521 501q0 47 -34.5 80.5t-82.5 33.5h-235v-229h235q48 0 82.5 34t34.5 81z" />
    <glyph glyph-name="Q" unicode="Q" horiz-adv-x="812" 
d="M764 16l-64 -64l-89 87q-90 -57 -198 -57q-158 0 -264 106t-106 264q0 160 99.5 265t258.5 105t260 -106q98 -104 98 -264q0 -156 -80 -253zM668 352q0 123 -73 209q-76 92 -194 92t-194 -92q-72 -86 -72 -209q0 -122 72 -208q76 -89 194 -89t194 89q73 86 73 208z" />
    <glyph glyph-name="R" unicode="R" horiz-adv-x="667" 
d="M656 0h-112l-189 297h-186v-297h-92v705h341q85 0 146.5 -59.5t61.5 -144.5q0 -72 -46 -128t-117 -71zM535 501q0 47 -34.5 80.5t-82.5 33.5h-249v-229h249q48 0 82.5 33.5t34.5 81.5z" />
    <glyph glyph-name="S" unicode="S" horiz-adv-x="667" 
d="M612 199q0 -100 -97 -161q-84 -53 -190 -53t-190 53q-98 61 -97 161v22l91 15v-37q0 -59 71 -103q62 -38 125 -38q64 0 126 38q70 43 70 103q0 79 -117 108l-216 50q-116 45 -116 165q0 91 84 149q74 51 169 51q97 0 181 -50q96 -59 96 -150v-18h-92l1 19q0 52 -69 91
q-60 34 -117 34q-54 0 -105 -35q-57 -39 -57 -91q0 -73 117 -100l216 -51q116 -49 116 -172z" />
    <glyph glyph-name="T" unicode="T" horiz-adv-x="542" 
d="M526 616h-213v-616h-91v616h-215v89h519v-89z" />
    <glyph glyph-name="U" unicode="U" horiz-adv-x="688" 
d="M609 249q0 -117 -75 -191.5t-192 -74.5t-192 74.5t-75 191.5v457h91v-457q0 -77 49.5 -127t126.5 -50t126.5 50t49.5 127v457h91v-457z" />
    <glyph glyph-name="V" unicode="V" horiz-adv-x="604" 
d="M593 707l-252 -707h-82l-252 707h86l207 -578l207 578h86z" />
    <glyph glyph-name="W" unicode="W" horiz-adv-x="1021" 
d="M1008 707l-226 -707h-94l-174 574l-174 -574h-94l-226 707h99l174 -578l174 578h94l174 -578l174 578h99z" />
    <glyph glyph-name="X" unicode="X" horiz-adv-x="625" 
d="M607 0h-104l-196 290l-197 -290h-103l248 366l-229 340h103l178 -264l178 264h103l-230 -340z" />
    <glyph glyph-name="Y" unicode="Y" horiz-adv-x="625" 
d="M607 706l-258 -397v-309h-86v309l-258 397h101l200 -300l201 300h100z" />
    <glyph glyph-name="Z" unicode="Z" horiz-adv-x="604" 
d="M576 0h-564v85l443 532h-408v90h529v-85l-441 -532h441v-90z" />
    <glyph glyph-name="bracketleft" unicode="[" horiz-adv-x="313" 
d="M299 -117h-180v860h180v-76h-104v-707h104v-77z" />
    <glyph glyph-name="backslash" unicode="\" horiz-adv-x="333" 
d="M320 0h-76l-245 707h77z" />
    <glyph glyph-name="bracketright" unicode="]" horiz-adv-x="313" 
d="M196 -117h-180v77h104v707h-104v76h180v-860z" />
    <glyph glyph-name="asciicircum" unicode="^" horiz-adv-x="667" 
d="M535 341h-76l-128 270l-127 -270h-76l165 362h77z" />
    <glyph glyph-name="underscore" unicode="_" horiz-adv-x="500" 
d="M517 -125h-517v53h517v-53z" />
    <glyph glyph-name="grave" unicode="`" 
d="M201 521h-37l-97 139h91z" />
    <glyph glyph-name="a" unicode="a" horiz-adv-x="500" 
d="M474 -9q-54 0 -77 17q-27 19 -28 70q-113 -95 -181 -95q-70 0 -113.5 40.5t-43.5 108.5q0 76 60 106q40 19 133 25q100 7 129 17q-1 15 -4 46q-15 92 -109 92q-86 0 -99 -66q-2 -9 0 -23l-84 -1v24q0 64 62 103q53 33 121 33t121 -34q62 -38 62 -102v-242q0 -20 15 -34
t36 -15v-70zM354 135v97q-74 -16 -114 -16q-43 0 -80 -20q-45 -24 -45 -64q0 -80 73 -80q96 0 166 83z" />
    <glyph glyph-name="b" unicode="b" horiz-adv-x="562" 
d="M520 236q0 -98 -65 -173q-68 -78 -165 -78q-103 0 -149 98v-89h-70v711h70v-315q46 98 149 98q97 0 165 -78q65 -75 65 -174zM438 236q0 76 -33 123q-38 54 -108 54q-72 0 -116 -55q-40 -50 -40 -124q0 -73 40 -122q42 -54 114 -54q70 0 109 54q34 49 34 124z" />
    <glyph glyph-name="c" unicode="c" horiz-adv-x="521" 
d="M492 164q-17 -80 -76 -129t-141 -49q-104 0 -168.5 72t-64.5 177q0 106 64.5 177.5t169.5 71.5q81 0 139.5 -48.5t76.5 -127.5h-85q-31 106 -130 106q-73 0 -115 -53q-38 -49 -38 -126t38 -126q42 -53 114 -53q101 0 131 108h85z" />
    <glyph glyph-name="d" unicode="d" horiz-adv-x="562" 
d="M501 -6h-70v89q-47 -98 -152 -98q-99 0 -168 76t-69 175q0 100 69 176t168 76q105 0 152 -98v262h70v-658zM423 234q0 76 -39 125q-41 54 -114 54q-72 0 -113 -53q-37 -48 -37 -124q0 -75 38 -125q42 -53 114 -53t113 53q38 48 38 123z" />
    <glyph glyph-name="e" unicode="e" horiz-adv-x="521" 
d="M480 209h-365q6 -73 43 -116q40 -48 107 -48q49 0 88 27t57 73h60q-21 -71 -76.5 -114t-129.5 -43q-102 0 -165 74q-59 70 -59 173t60 173q63 74 164 74q75 0 129 -43t78 -116q9 -28 9 -44v-70zM404 279q-22 146 -143 146t-144 -146h287z" />
    <glyph glyph-name="f" unicode="f" 
d="M271 628q-3 0 -27 1h-27q-57 0 -57 -40v-119h85v-70h-85l1 -400h-72l1 400h-58v70h58v119q0 43 28 76.5t67 33.5q7 0 14 -1l72 -13v-57z" />
    <glyph glyph-name="g" unicode="g" horiz-adv-x="562" 
d="M486 -39q0 -88 -56.5 -140t-145.5 -52q-81 0 -142 43q-67 49 -67 127h71q0 -49 49 -80q43 -28 94 -28q59 0 93 35.5t34 94.5v126q-47 -99 -148 -99q-92 0 -159 73t-67 166q0 97 65 173q67 80 163 80q99 0 146 -99v89h70v-509zM416 229q0 73 -34 123q-40 58 -109 58
q-70 0 -112 -58q-37 -52 -37 -125q0 -69 38 -116q41 -51 109 -51t108 52q37 47 37 117z" />
    <glyph glyph-name="h" unicode="h" horiz-adv-x="521" 
d="M458 0h-70v312q0 49 -32 77q-29 25 -73 25q-50 0 -89 -31q-44 -35 -50 -93v-290h-70v702h70v-307q53 90 150 90q67 0 113 -45q51 -49 51 -128v-312z" />
    <glyph glyph-name="i" unicode="i" horiz-adv-x="208" 
d="M141 617h-70v89h70v-89zM141 0h-70v469h70v-469z" />
    <glyph glyph-name="j" unicode="j" horiz-adv-x="208" 
d="M135 616h-70v89h70v-89zM135 -122q0 -68 -47 -92q-32 -16 -111 -16v70q46 0 63 9q25 15 25 58v562h70v-591z" />
    <glyph glyph-name="k" unicode="k" horiz-adv-x="458" 
d="M452 0h-86l-166 246l-62 -58v-188h-70v705h70v-422l201 187h103l-190 -176z" />
    <glyph glyph-name="l" unicode="l" horiz-adv-x="208" 
d="M135 0h-70v705h70v-705z" />
    <glyph glyph-name="m" unicode="m" horiz-adv-x="771" 
d="M700 0h-70v312q0 43 -25 73.5t-66 30.5q-69 0 -106 -83q-10 -23 -10 -29v-304h-70v312q0 45 -24.5 73.5t-68.5 28.5q-48 0 -88 -38t-40 -86v-290h-70v471h70v-76q53 90 147 90q98 0 132 -102q51 101 146 101q67 0 107 -54q36 -48 36 -118v-312z" />
    <glyph glyph-name="n" unicode="n" horiz-adv-x="521" 
d="M455 0h-70v312q0 47 -30.5 74.5t-77.5 27.5q-52 0 -96 -35q-47 -37 -47 -89v-290h-70v471h70v-76q53 90 152 90q74 0 121.5 -49.5t47.5 -123.5v-312z" />
    <glyph glyph-name="o" unicode="o" horiz-adv-x="542" 
d="M501 230q0 -106 -61 -177q-64 -76 -169 -76q-104 0 -168 76q-61 71 -61 177q0 107 61 178q64 75 168 75q105 0 169 -75q61 -71 61 -178zM420 230q0 74 -36 126q-42 58 -112 58q-71 0 -112 -58q-37 -52 -37 -126q0 -73 37 -125q41 -58 112 -58q70 0 112 58q36 52 36 125z
" />
    <glyph glyph-name="p" unicode="p" horiz-adv-x="562" 
d="M523 227q0 -98 -69 -174q-71 -79 -169 -79q-103 0 -150 99v-305h-70v702h70v-89q47 99 150 99q98 0 168 -77.5t70 -175.5zM441 227q0 73 -39 125q-42 58 -113 58q-70 0 -110 -57q-35 -51 -35 -124t36 -125q41 -57 111 -57t112 56q38 51 38 124z" />
    <glyph glyph-name="q" unicode="q" horiz-adv-x="562" 
d="M501 -232h-70v305q-47 -99 -151 -99q-98 0 -169 77t-71 176t71 176t169 77q104 0 151 -99v89h70v-702zM418 229q0 73 -35 124q-40 57 -110 57q-71 0 -113 -58q-39 -52 -39 -125t38 -124q42 -56 112 -56t111 57q36 52 36 125z" />
    <glyph glyph-name="r" unicode="r" horiz-adv-x="313" 
d="M300 410q-46 0 -106 -46q-63 -48 -63 -92v-272h-69v471h69v-117q1 48 62 89q56 37 107 37v-70z" />
    <glyph glyph-name="s" unicode="s" horiz-adv-x="479" 
d="M438 124q0 -71 -67 -111q-56 -33 -133 -33q-76 0 -132 33q-66 40 -66 111v33h69v-18q0 -46 42 -71q35 -20 85 -20q44 0 82 17q50 21 50 59q0 51 -85 69l-158 32q-85 31 -85 113q0 71 65 111q55 33 130 33t130 -33q65 -40 65 -111h-70q-1 39 -42 59q-33 16 -76 16t-76 -16
q-42 -20 -42 -59q0 -45 81 -62q141 -29 152 -34q81 -33 81 -118z" />
    <glyph glyph-name="t" unicode="t" horiz-adv-x="292" 
d="M248 0q-37 -15 -69 -15q-86 0 -86 106v311h-74v70h74v148h71l-1 -148h85v-70h-85v-311q0 -38 38 -38q25 0 47 17v-70z" />
    <glyph glyph-name="u" unicode="u" horiz-adv-x="521" 
d="M451 0h-70v76q-53 -90 -151 -90q-72 0 -118.5 50t-46.5 123v312h70v-312q0 -46 29.5 -74t76.5 -28q52 0 96 36.5t44 87.5v290h70v-471z" />
    <glyph glyph-name="v" unicode="v" horiz-adv-x="437" 
d="M432 470l-175 -470h-73l-175 470h73l138 -372l139 372h73z" />
    <glyph glyph-name="w" unicode="w" horiz-adv-x="729" 
d="M715 470l-144 -470h-73l-128 374l-117 -374h-71l-162 470h84l117 -341l105 341h84l117 -341l105 341h83z" />
    <glyph glyph-name="x" unicode="x" horiz-adv-x="396" 
d="M391 0h-77l-116 178l-117 -178h-76l154 236l-153 234h77l115 -175l114 175h77l-153 -234z" />
    <glyph glyph-name="y" unicode="y" horiz-adv-x="437" 
d="M435 468l-205 -552q-31 -84 -66 -113q-42 -35 -129 -35q-12 0 -24 2v71q12 -3 26 -3q71 0 103 46q13 18 44 107l-176 477l74 1l139 -378l141 378z" />
    <glyph glyph-name="z" unicode="z" horiz-adv-x="417" 
d="M404 0h-389v70l289 332h-271v70h363v-70l-289 -332h297v-70z" />
    <glyph glyph-name="braceleft" unicode="{" horiz-adv-x="354" 
d="M322 -126q-101 -1 -145 44.5t-44 152.5v41q1 28 1 42q0 69 -19 100q-25 40 -86 39v51q60 -1 85 38q20 33 20 100v42q-1 28 -1 42q0 107 44 152.5t145 44.5v-51q-95 1 -118 -88l-16 -176q-13 -105 -82 -130q70 -21 82 -125l16 -179q22 -90 118 -89v-51z" />
    <glyph glyph-name="bar" unicode="|" horiz-adv-x="229" 
d="M152 -232h-70v981h70v-981z" />
    <glyph glyph-name="braceright" unicode="}" horiz-adv-x="354" 
d="M320 293q-61 1 -86 -39q-19 -31 -19 -100q0 -14 1 -42v-41q0 -107 -44 -152.5t-145 -44.5v51q96 -1 118 89l16 179q12 104 82 125q-69 25 -82 130l-16 176q-23 89 -118 88v51q101 1 145 -44.5t44 -152.5q0 -14 -1 -42v-42q0 -67 20 -100q25 -39 85 -38v-51z" />
    <glyph glyph-name="asciitilde" unicode="~" horiz-adv-x="667" 
d="M573 284q-24 -61 -89 -61q-51 0 -142 38t-140 38q-66 0 -65 -86l-41 69q18 94 97 94q50 0 141 -39.5t141 -39.5q53 0 64 59z" />
    <glyph glyph-name="nonbreakingspace" unicode="&#xa0;" 
 />
    <glyph glyph-name="glyph100" horiz-adv-x="208" 
 />
    <glyph glyph-name="glyph101" 
 />
    <glyph glyph-name="glyph102" 
 />
    <glyph glyph-name="glyph103" 
 />
    <glyph glyph-name="glyph104" 
 />
    <glyph glyph-name="glyph105" 
 />
    <glyph glyph-name="glyph106" 
 />
  </font>
</defs>
</svg>
